<svg id="brandSvg" width="296" height="91" viewBox="0 0 296 91" fill="none" xmlns="http://www.w3.org/2000/svg">
<path d="M0.625 78.625C0.625 77.5417 0.875 76.3333 1.375 75C1.95833 73.5833 2.83333 72.6667 4 72.25C4.16667 72.1667 4.375 72.125 4.625 72.125C4.95833 72.0417 5.25 71.9583 5.5 71.875C5.83333 71.7917 6.125 71.75 6.375 71.75V78.625C6.875 78.125 7.625 77.2083 8.625 75.875C9.70833 74.5417 10.7917 73.125 11.875 71.625C13.0417 70.0417 14.0833 68.5417 15 67.125C16 65.7083 16.6667 64.6667 17 64L46.125 7.25C46.125 7.25 46.3333 7 46.75 6.5C47.25 6 47.7917 5.66667 48.375 5.5C49.0417 5.25 49.75 5.33333 50.5 5.75C51.25 6.16667 51.9583 7.25 52.625 9L34.875 44.75V46.25C37.2083 46.5833 39.375 47.0833 41.375 47.75C43.375 48.3333 45.0833 49.2083 46.5 50.375C48 51.5417 49.1667 53 50 54.75C50.8333 56.4167 51.25 58.4583 51.25 60.875C51.25 64.9583 50.1667 68.7917 48 72.375C45.9167 75.875 43.2083 78.9583 39.875 81.625C36.5417 84.2083 32.8333 86.2917 28.75 87.875C24.75 89.375 20.875 90.125 17.125 90.125C15.4583 90.125 13.6667 89.9167 11.75 89.5C9.83333 89 8.04167 88.2917 6.375 87.375C4.79167 86.375 3.41667 85.1667 2.25 83.75C1.16667 82.25 0.625 80.5417 0.625 78.625ZM36.25 54.125C35.0833 54.125 33.7917 54.6667 32.375 55.75C31.0417 56.8333 29.7083 58.25 28.375 60C27.0417 61.6667 25.75 63.5833 24.5 65.75C23.25 67.8333 22.125 69.9167 21.125 72C20.2083 74.0833 19.4583 76.0417 18.875 77.875C18.2917 79.7083 18 81.1667 18 82.25C20.3333 82.25 22.9583 81.7083 25.875 80.625C28.7917 79.5417 31.5 78.125 34 76.375C36.5833 74.5417 38.7083 72.4583 40.375 70.125C42.125 67.7083 43 65.2083 43 62.625C43 60.375 42.5417 58.4167 41.625 56.75C40.7083 55 38.9167 54.125 36.25 54.125ZM84.875 80.375C84.875 77.875 85.375 75.5833 86.375 73.5C87.4583 71.3333 88.625 69.2917 89.875 67.375C91.125 65.4583 92.25 63.5417 93.25 61.625C94.3333 59.7083 94.875 57.6667 94.875 55.5C94.875 55 94.8333 54.4167 94.75 53.75C94.75 53 94.6667 52.2917 94.5 51.625C94.4167 50.9583 94.1667 50.4167 93.75 50C93.4167 49.5 92.9583 49.25 92.375 49.25C92.2917 49.25 92.125 49.2917 91.875 49.375C91.7083 49.375 91.625 49.4167 91.625 49.5C90.4583 51.0833 89.0417 52.875 87.375 54.875C85.7917 56.7917 84.0833 58.7083 82.25 60.625C80.4167 62.5417 78.625 64.375 76.875 66.125C75.125 67.875 73.5417 69.3333 72.125 70.5C71.125 71.4167 69.75 72.6667 68 74.25C66.3333 75.8333 64.625 77.4167 62.875 79C61.2083 80.5 59.7083 81.8333 58.375 83C57.125 84.1667 56.4167 84.75 56.25 84.75L50.5 79.875C51.25 79.875 52 79.7083 52.75 79.375C53.4167 79.0417 54.0833 78.6667 54.75 78.25C59.75 74.9167 64.25 71.0833 68.25 66.75C72.3333 62.4167 76.3333 57.75 80.25 52.75C80.4167 52.5 80.8333 51.7917 81.5 50.625C82.25 49.375 83.0417 48 83.875 46.5C84.7083 44.9167 85.5417 43.375 86.375 41.875C87.2083 40.2917 87.8333 39.0417 88.25 38.125C88.75 37.0417 89.0417 36.1667 89.125 35.5C89.2917 34.8333 89.4167 34.3333 89.5 34C89.6667 33.5833 89.9167 33.2917 90.25 33.125C90.5833 32.9583 91.2917 32.875 92.375 32.875C92.5417 32.875 92.9167 32.9167 93.5 33C94.1667 33.0833 94.5833 33.1667 94.75 33.25C95.8333 35.5 96.7917 37.5 97.625 39.25C98.4583 41 99.1667 42.6667 99.75 44.25C100.333 45.75 100.75 47.2917 101 48.875C101.333 50.4583 101.5 52.2083 101.5 54.125C100.417 56.875 99.2083 59.7083 97.875 62.625C96.5417 65.4583 95.4167 68.1667 94.5 70.75C93.5833 73.3333 93 75.6667 92.75 77.75C92.5833 79.8333 93.0417 81.5 94.125 82.75C95.2917 83.9167 97.2083 84.5417 99.875 84.625C102.625 84.7083 106.5 84 111.5 82.5C112.833 83.1667 112.958 84 111.875 85C110.792 85.9167 109.125 86.7917 106.875 87.625C104.708 88.4583 102.292 89.1667 99.625 89.75C97.0417 90.25 94.875 90.375 93.125 90.125C91.5417 90.125 90.2083 89.875 89.125 89.375C88.125 88.7917 87.2917 88.0417 86.625 87.125C86.0417 86.2083 85.5833 85.1667 85.25 84C85 82.8333 84.875 81.625 84.875 80.375ZM106.75 81.875C107.5 77.125 108.917 72.75 111 68.75C113.083 64.75 115.458 61.2917 118.125 58.375C120.875 55.375 123.833 52.9167 127 51C130.167 49.0833 133.25 47.875 136.25 47.375C139.25 46.7917 142 46.9167 144.5 47.75C147.083 48.5833 149.167 50.25 150.75 52.75C150.75 54.6667 150.292 56.5 149.375 58.25C148.542 60 147.583 61.75 146.5 63.5C145.5 65.25 144.542 67.0417 143.625 68.875C142.792 70.7083 142.375 72.6667 142.375 74.75C142.375 76.9167 142.833 78.6667 143.75 80C144.75 81.25 146.458 81.875 148.875 81.875C150.875 81.875 152.792 81.5833 154.625 81C156.542 80.4167 158.458 80.125 160.375 80.125C160.708 80.125 161.25 80.1667 162 80.25C162.833 80.25 163.375 80.25 163.625 80.25C162.625 81.6667 161.333 82.875 159.75 83.875C158.167 84.875 156.5 85.75 154.75 86.5C153 87.1667 151.167 87.6667 149.25 88C147.417 88.3333 145.708 88.5 144.125 88.5C142.625 88.5 141.292 88.1667 140.125 87.5C138.958 86.8333 137.958 85.9583 137.125 84.875C136.292 83.7917 135.625 82.5833 135.125 81.25C134.708 79.8333 134.5 78.4583 134.5 77.125C133.25 78.5417 131.875 80.0417 130.375 81.625C128.958 83.125 127.417 84.5 125.75 85.75C124.167 87 122.417 88.0417 120.5 88.875C118.667 89.7083 116.75 90.125 114.75 90.125C112.583 90.125 110.708 89.3333 109.125 87.75C107.542 86.0833 106.75 84.125 106.75 81.875ZM115 78C115 78.6667 115 79.4167 115 80.25C115.083 81.0833 115.625 81.625 116.625 81.875C118.708 81.375 121.083 80.2917 123.75 78.625C126.417 76.875 128.917 74.875 131.25 72.625C133.583 70.2917 135.542 67.8333 137.125 65.25C138.708 62.5833 139.5 60.0417 139.5 57.625C139.5 57.4583 139.458 57.2083 139.375 56.875C139.375 56.4583 139.375 56.1667 139.375 56C136.542 56 133.667 56.5833 130.75 57.75C127.833 58.9167 125.208 60.5417 122.875 62.625C120.542 64.625 118.625 66.9583 117.125 69.625C115.708 72.2917 115 75.0833 115 78ZM161.625 84.375C161.625 83.625 161.625 83.0417 161.625 82.625C161.625 82.2083 161.667 81.8333 161.75 81.5C161.917 81.0833 162.125 80.6667 162.375 80.25C162.625 79.8333 162.958 79.2917 163.375 78.625C164.042 77.4583 165.292 75.4167 167.125 72.5C168.958 69.5833 170.917 66.5 173 63.25C175.083 60 177.042 56.9167 178.875 54C180.792 51.0833 182.125 49.0417 182.875 47.875C182.958 47.7917 183.167 47.75 183.5 47.75C183.917 47.75 184.208 47.75 184.375 47.75C184.542 47.75 184.833 47.75 185.25 47.75C185.667 47.75 185.917 47.7917 186 47.875C186.083 47.9583 186.25 48.1667 186.5 48.5C186.833 48.8333 187.167 49.2083 187.5 49.625C187.917 49.9583 188.25 50.2917 188.5 50.625C188.833 50.9583 189.083 51.125 189.25 51.125C190 51.125 190.792 50.875 191.625 50.375C192.458 49.875 193.292 49.3333 194.125 48.75C195.042 48.0833 195.958 47.5 196.875 47C197.792 46.5 198.75 46.25 199.75 46.25C200.833 46.25 201.833 46.5 202.75 47C203.667 47.5 204.458 48.125 205.125 48.875C205.792 49.625 206.292 50.4583 206.625 51.375C207.042 52.2917 207.25 53.2083 207.25 54.125C207.25 56.0417 206.958 57.875 206.375 59.625C205.875 61.375 205.292 63.125 204.625 64.875C203.958 66.5417 203.333 68.25 202.75 70C202.25 71.6667 202 73.4167 202 75.25C202 77.0833 202.208 78.4167 202.625 79.25C203.042 80 204.208 80.375 206.125 80.375C208.375 80.375 210.5 80.0417 212.5 79.375C214.583 78.7083 216.708 78.375 218.875 78.375C218.875 80.375 218.25 82.0417 217 83.375C215.833 84.7083 214.333 85.7917 212.5 86.625C210.75 87.375 208.833 87.9167 206.75 88.25C204.75 88.5 202.917 88.625 201.25 88.625C198.083 88.625 195.75 87.75 194.25 86C192.833 84.1667 192.125 81.75 192.125 78.75C192.125 76.75 192.458 74.875 193.125 73.125C193.875 71.375 194.667 69.6667 195.5 68C196.417 66.3333 197.25 64.6667 198 63C198.75 61.3333 199.125 59.5417 199.125 57.625C199.125 57.125 199.042 56.4583 198.875 55.625C198.708 54.7917 198.167 54.375 197.25 54.375C194.5 54.375 192 55.25 189.75 57C187.583 58.75 185.583 60.9583 183.75 63.625C182 66.2917 180.375 69.1667 178.875 72.25C177.458 75.3333 176.083 78.2083 174.75 80.875C173.5 83.5417 172.292 85.75 171.125 87.5C169.958 89.25 168.75 90.125 167.5 90.125C165.75 90.125 164.333 89.5833 163.25 88.5C162.167 87.4167 161.625 86.0417 161.625 84.375ZM215.625 77.625C215.625 73.4583 216.792 69.375 219.125 65.375C221.542 61.375 224.583 57.8333 228.25 54.75C231.917 51.6667 235.958 49.2083 240.375 47.375C244.792 45.4583 249 44.5 253 44.5C254.583 44.5 256.083 44.7917 257.5 45.375C258.917 45.9583 260.417 46.25 262 46.25H262.75C263.167 45.3333 263.958 43.7083 265.125 41.375C266.375 39.0417 267.667 36.5833 269 34C270.417 31.4167 271.75 29 273 26.75C274.25 24.4167 275.167 22.7917 275.75 21.875C276.667 20.2917 277.917 18.3333 279.5 16C281.083 13.5833 282.625 11.25 284.125 9C285.708 6.75 287.083 4.83333 288.25 3.25C289.417 1.66667 290.083 0.875 290.25 0.875L295.125 5.75C295.125 5.91667 294.792 6.66667 294.125 8C293.542 9.33333 292.75 11.0833 291.75 13.25C290.75 15.3333 289.583 17.6667 288.25 20.25C287 22.8333 285.708 25.4167 284.375 28C283.042 30.5833 281.75 33.0833 280.5 35.5C279.333 37.8333 278.292 39.7917 277.375 41.375C274.792 45.2917 272.167 49.2917 269.5 53.375C266.917 57.375 264.833 61.125 263.25 64.625C261.75 68.0417 261 71.0417 261 73.625C261.083 76.2083 262.5 78 265.25 79C270.25 78.0833 274 77.7083 276.5 77.875C279 78.0417 280.542 78.5 281.125 79.25C281.792 79.9167 281.708 80.75 280.875 81.75C280.042 82.6667 278.708 83.5 276.875 84.25C275.125 85 273.083 85.5 270.75 85.75C268.417 86 266.083 85.75 263.75 85C261.417 84.25 259.292 82.875 257.375 80.875C255.458 78.875 254 76 253 72.25L233.625 88.375C233.625 88.375 233.292 88.4583 232.625 88.625C232.042 88.7917 231.292 88.9583 230.375 89.125C229.542 89.2917 228.667 89.4583 227.75 89.625C226.833 89.7917 226.083 89.9167 225.5 90H224.75C222.833 90 221.25 89.6667 220 89C218.833 88.25 217.917 87.3333 217.25 86.25C216.583 85.0833 216.125 83.75 215.875 82.25C215.708 80.75 215.625 79.2083 215.625 77.625ZM223.75 76.25C223.75 76.75 223.708 77.3333 223.625 78C223.625 78.6667 223.667 79.2917 223.75 79.875C223.917 80.375 224.167 80.8333 224.5 81.25C224.917 81.6667 225.5 81.875 226.25 81.875C227.333 81.875 228.625 81.5 230.125 80.75C231.708 79.9167 233.25 78.9583 234.75 77.875C236.25 76.7917 237.625 75.7083 238.875 74.625C240.208 73.5417 241.167 72.75 241.75 72.25C242.333 71.6667 243.417 70.625 245 69.125C246.583 67.5417 248.208 65.875 249.875 64.125C251.625 62.375 253.25 60.75 254.75 59.25C256.25 57.75 257.292 56.6667 257.875 56V55.625C257.875 55.4583 257.875 55.375 257.875 55.375C257.958 55.2917 258 55.2083 258 55.125C258 54.375 257.75 53.8333 257.25 53.5C256.833 53.0833 256.292 52.8333 255.625 52.75C255.042 52.5833 254.417 52.5417 253.75 52.625C253.083 52.625 252.542 52.625 252.125 52.625C249.125 52.625 245.958 53.25 242.625 54.5C239.292 55.75 236.208 57.4583 233.375 59.625C230.625 61.7083 228.333 64.2083 226.5 67.125C224.667 69.9583 223.75 73 223.75 76.25Z" fill="#FFD700"/>
</svg>
