<svg id="crafting" width="406" height="167" viewBox="0 0 406 167" fill="none" xmlns="http://www.w3.org/2000/svg">
<path d="M43.2871 39.102C44.0293 32.4221 58.688 21.5592 50.5445 15.2253C48.3906 13.5501 37.1358 17.5934 35.1446 18.6475C22.4716 25.3567 17.0979 37.8659 10.9926 50.0766C7.10347 57.8549 0.382253 77.0158 4.06957 86.0293C9.01198 98.1107 30.8432 90.0174 39.0192 83.8855C41.2156 82.2382 47.5122 75.3372 41.7923 75.566C38.3791 75.7025 38.9363 85.4786 44.1721 85.4786C57.876 85.4786 78.6763 63.4861 82.3079 51.1387C86.1082 38.2177 83.0917 55.5839 84.904 57.1373C90.3201 61.7797 83.6399 70.3046 81.5212 76.7854C76.7441 91.3977 94.3944 104.58 101.504 88.3304C106.773 76.2862 110.52 58.219 127.013 58.219C144.806 58.219 130.112 80.0785 124.2 85.9899C120.496 89.6937 115.466 92.2049 110.275 92.2049C105.885 92.2049 98.0582 88.5532 104.532 91.1429C110.018 93.337 114.82 92.293 120.109 89.6481C122.852 88.2769 127.898 78.0113 127.898 83.0004C127.898 96.9003 145.801 95.0086 155 90.2775C156.224 89.6481 172.212 69.2436 178.169 59.4581C184.888 48.4186 193.751 42.2822 202.793 33.241C208.878 27.1557 217.225 20.693 205.271 20.693C177.451 20.693 171.825 61.9182 163.221 80.719C155.075 98.5196 147.302 132.917 122.941 132.917C116.274 132.917 124.341 132.824 126.836 132.13C131.223 130.912 137.876 128.943 140.977 125.325C148.832 116.161 153.035 107.729 157.306 95.3911C158.35 92.3744 167.324 68.7498 167.687 68.8704C165.4 67.9556 152.153 73.0973 154.095 72.1832C159.609 69.5885 167.592 69.12 173.566 67.8562C179.96 66.5038 186.577 68.758 192.5 66.0245C195.392 64.6897 195 66.0245 199.5 63.0245C204 60.0245 206 55.4585 212 51.5249C223.483 48.0249 221 50.1412 227.5 41.5249C231.789 35.8391 238.306 23.4121 241.5 17.0251C242.742 14.5405 254.87 -2.03536 249 4.52521C242.654 11.6174 230.563 35.2382 230.563 44.7663C230.563 51.7369 275.78 33.5725 245.393 44.0583C237.439 46.803 229 42.0245 223.483 57.3143C219.5 69.823 217.469 75.8807 214.81 87.052C211.84 99.5245 225.218 93.6515 230.485 91.4969C237.707 88.5423 247.402 82.9948 250.959 75.8807C253.583 70.6328 258.282 65.8758 260.38 60.4218C260.83 59.2501 253.517 70.9711 251.824 73.9336C247.01 82.3579 239.542 95.3911 254.991 95.3911C262.695 95.3911 267.325 90.6401 273.754 87.4257C284.139 82.2329 290.708 74.582 296.175 64.6897C302.397 53.4318 292.244 67.1931 290.117 71.7898C287 78.5273 275.829 97.7112 280.284 91.7722C286.976 82.8489 293.414 73.899 299.735 64.7684C306.097 55.5783 314.042 59.2492 312.971 69.823C312.261 76.8342 304.256 100.66 320.13 94.4864C336.812 87.9991 335.872 60.269 353.212 54.4893C361.564 51.7052 366.89 61.4767 366.89 68.8704C366.89 83.4592 357.51 89.4221 344.027 92.382C318.555 97.9734 339.055 62.5062 350.576 55.4656C356.558 51.8099 364.182 58.3073 365.956 63.8834C370.646 78.6212 357.88 101.498 350.792 113.387C343.795 125.124 332.618 140.46 321.9 148.848C317.978 151.918 301.578 175.358 304.77 156.204C309.156 129.89 333.917 122.752 353.212 109.395C361.861 103.406 370.566 97.9847 378.898 91.5756C381.616 89.4847 383.605 85.7486 386.332 83.9838C390.799 81.0936 400.595 67.8254 402.263 62.8213" stroke="#FFD700" stroke-width="6" stroke-linecap="round"/>
</svg>
