<svg id="crafting" width="393" height="179" viewBox="0 0 393 179" fill="none" xmlns="http://www.w3.org/2000/svg">
<path d="M0.625 82.125C1.20833 77.2917 2.25 72.7083 3.75 68.375C5.25 63.9583 7.08333 59.7083 9.25 55.625C11.4167 51.4583 13.8333 47.375 16.5 43.375C19.1667 39.375 22 35.3333 25 31.25C26.75 29 28.6667 26.7083 30.75 24.375C32.8333 22.0417 35.0833 19.9167 37.5 18C39.9167 16.0833 42.5 14.5417 45.25 13.375C48.0833 12.125 51.0417 11.5 54.125 11.5C55.7917 11.5 57.0833 11.625 58 11.875C58.9167 12.0417 59.5833 12.4583 60 13.125C60.5 13.7083 60.7917 14.5833 60.875 15.75C60.9583 16.9167 60.9583 18.4167 60.875 20.25C60.875 22.3333 60.5 24.4583 59.75 26.625C59 28.7917 57.9583 30.8333 56.625 32.75C55.2917 34.6667 53.7083 36.375 51.875 37.875C50.0417 39.2917 48.0833 40.3333 46 41V39.25C46 37.5 46.375 35.8333 47.125 34.25C47.9583 32.6667 48.875 31.0833 49.875 29.5C50.875 27.8333 51.75 26.125 52.5 24.375C53.3333 22.625 53.75 20.75 53.75 18.75C52.8333 18.75 52.0417 18.7083 51.375 18.625C50.7083 18.4583 50.0833 18.375 49.5 18.375C49 18.2917 48.4583 18.375 47.875 18.625C47.375 18.7917 46.75 19.2083 46 19.875C41.9167 23.2083 37.7083 27.125 33.375 31.625C29.125 36.0417 25.25 40.8333 21.75 46C18.25 51.1667 15.375 56.5833 13.125 62.25C10.9583 67.8333 9.875 73.4583 9.875 79.125C9.875 79.375 9.875 79.7917 9.875 80.375C9.95833 80.9583 10 81.5417 10 82.125C10.0833 82.7083 10.1667 83.25 10.25 83.75C10.3333 84.25 10.375 84.5417 10.375 84.625C11.2917 85.5417 12.375 86.0833 13.625 86.25C14.9583 86.4167 15.9583 86.5 16.625 86.5C20.2083 86.5 23.5417 85.875 26.625 84.625C29.7917 83.375 32.875 82.0417 35.875 80.625C38.875 79.125 41.875 77.75 44.875 76.5C47.9583 75.25 51.2083 74.625 54.625 74.625C54.625 75.9583 53.8333 77.4583 52.25 79.125C50.75 80.7083 48.75 82.2917 46.25 83.875C43.8333 85.4583 41.125 87 38.125 88.5C35.125 89.9167 32.1667 91.2083 29.25 92.375C26.4167 93.5417 23.7917 94.4583 21.375 95.125C19.0417 95.7917 17.25 96.125 16 96.125C14.1667 96.125 12.3333 95.7917 10.5 95.125C8.66667 94.375 7 93.375 5.5 92.125C4.08333 90.875 2.91667 89.4167 2 87.75C1.08333 86 0.625 84.125 0.625 82.125ZM83.25 86.375C83.25 83.875 83.75 81.5833 84.75 79.5C85.8333 77.3333 87 75.2917 88.25 73.375C89.5 71.4583 90.625 69.5417 91.625 67.625C92.7083 65.7083 93.25 63.6667 93.25 61.5C93.25 61 93.2083 60.4167 93.125 59.75C93.125 59 93.0417 58.2917 92.875 57.625C92.7917 56.9583 92.5417 56.4167 92.125 56C91.7917 55.5 91.3333 55.25 90.75 55.25C90.6667 55.25 90.5 55.2917 90.25 55.375C90.0833 55.375 90 55.4167 90 55.5C88.8333 57.0833 87.4167 58.875 85.75 60.875C84.1667 62.7917 82.4583 64.7083 80.625 66.625C78.7917 68.5417 77 70.375 75.25 72.125C73.5 73.875 71.9167 75.3333 70.5 76.5C69.5 77.4167 68.125 78.6667 66.375 80.25C64.7083 81.8333 63 83.4167 61.25 85C59.5833 86.5 58.0833 87.8333 56.75 89C55.5 90.1667 54.7917 90.75 54.625 90.75L48.875 85.875C49.625 85.875 50.375 85.7083 51.125 85.375C51.7917 85.0417 52.4583 84.6667 53.125 84.25C58.125 80.9167 62.625 77.0833 66.625 72.75C70.7083 68.4167 74.7083 63.75 78.625 58.75C78.7917 58.5 79.2083 57.7917 79.875 56.625C80.625 55.375 81.4167 54 82.25 52.5C83.0833 50.9167 83.9167 49.375 84.75 47.875C85.5833 46.2917 86.2083 45.0417 86.625 44.125C87.125 43.0417 87.4167 42.1667 87.5 41.5C87.6667 40.8333 87.7917 40.3333 87.875 40C88.0417 39.5833 88.2917 39.2917 88.625 39.125C88.9583 38.9583 89.6667 38.875 90.75 38.875C90.9167 38.875 91.2917 38.9167 91.875 39C92.5417 39.0833 92.9583 39.1667 93.125 39.25C94.2083 41.5 95.1667 43.5 96 45.25C96.8333 47 97.5417 48.6667 98.125 50.25C98.7083 51.75 99.125 53.2917 99.375 54.875C99.7083 56.4583 99.875 58.2083 99.875 60.125C98.7917 62.875 97.5833 65.7083 96.25 68.625C94.9167 71.4583 93.7917 74.1667 92.875 76.75C91.9583 79.3333 91.375 81.6667 91.125 83.75C90.9583 85.8333 91.4167 87.5 92.5 88.75C93.6667 89.9167 95.5833 90.5417 98.25 90.625C101 90.7083 104.875 90 109.875 88.5C111.208 89.1667 111.333 90 110.25 91C109.167 91.9167 107.5 92.7917 105.25 93.625C103.083 94.4583 100.667 95.1667 98 95.75C95.4167 96.25 93.25 96.375 91.5 96.125C89.9167 96.125 88.5833 95.875 87.5 95.375C86.5 94.7917 85.6667 94.0417 85 93.125C84.4167 92.2083 83.9583 91.1667 83.625 90C83.375 88.8333 83.25 87.625 83.25 86.375ZM105.125 87.875C105.875 83.125 107.292 78.75 109.375 74.75C111.458 70.75 113.833 67.2917 116.5 64.375C119.25 61.375 122.208 58.9167 125.375 57C128.542 55.0833 131.625 53.875 134.625 53.375C137.625 52.7917 140.375 52.9167 142.875 53.75C145.458 54.5833 147.542 56.25 149.125 58.75C149.125 60.6667 148.667 62.5 147.75 64.25C146.917 66 145.958 67.75 144.875 69.5C143.875 71.25 142.917 73.0417 142 74.875C141.167 76.7083 140.75 78.6667 140.75 80.75C140.75 82.9167 141.208 84.6667 142.125 86C143.125 87.25 144.833 87.875 147.25 87.875C149.25 87.875 151.167 87.5833 153 87C154.917 86.4167 156.833 86.125 158.75 86.125C159.083 86.125 159.625 86.1667 160.375 86.25C161.208 86.25 161.75 86.25 162 86.25C161 87.6667 159.708 88.875 158.125 89.875C156.542 90.875 154.875 91.75 153.125 92.5C151.375 93.1667 149.542 93.6667 147.625 94C145.792 94.3333 144.083 94.5 142.5 94.5C141 94.5 139.667 94.1667 138.5 93.5C137.333 92.8333 136.333 91.9583 135.5 90.875C134.667 89.7917 134 88.5833 133.5 87.25C133.083 85.8333 132.875 84.4583 132.875 83.125C131.625 84.5417 130.25 86.0417 128.75 87.625C127.333 89.125 125.792 90.5 124.125 91.75C122.542 93 120.792 94.0417 118.875 94.875C117.042 95.7083 115.125 96.125 113.125 96.125C110.958 96.125 109.083 95.3333 107.5 93.75C105.917 92.0833 105.125 90.125 105.125 87.875ZM113.375 84C113.375 84.6667 113.375 85.4167 113.375 86.25C113.458 87.0833 114 87.625 115 87.875C117.083 87.375 119.458 86.2917 122.125 84.625C124.792 82.875 127.292 80.875 129.625 78.625C131.958 76.2917 133.917 73.8333 135.5 71.25C137.083 68.5833 137.875 66.0417 137.875 63.625C137.875 63.4583 137.833 63.2083 137.75 62.875C137.75 62.4583 137.75 62.1667 137.75 62C134.917 62 132.042 62.5833 129.125 63.75C126.208 64.9167 123.583 66.5417 121.25 68.625C118.917 70.625 117 72.9583 115.5 75.625C114.083 78.2917 113.375 81.0833 113.375 84ZM128.375 135.75C133.042 135.75 137.292 134.417 141.125 131.75C144.958 129.083 148.417 125.75 151.5 121.75C154.583 117.833 157.25 113.625 159.5 109.125C161.75 104.708 163.583 100.708 165 97.125C165.583 95.625 166.333 93.5833 167.25 91C168.167 88.3333 169.042 85.75 169.875 83.25C170.792 80.6667 171.542 78.375 172.125 76.375C172.792 74.375 173.125 73.2083 173.125 72.875V72.375C171.708 71.2083 170.292 70.7917 168.875 71.125C167.458 71.375 166.083 71.7917 164.75 72.375C163.5 72.875 162.333 73.2083 161.25 73.375C160.167 73.4583 159.208 72.7083 158.375 71.125C158.375 69.7083 158.75 68.5833 159.5 67.75C160.25 66.9167 161.208 66.25 162.375 65.75C163.542 65.25 164.833 64.875 166.25 64.625C167.667 64.375 169.042 64.0833 170.375 63.75C171.708 63.4167 172.917 62.9583 174 62.375C175.083 61.7917 175.875 60.9583 176.375 59.875L189.25 30.75C190.333 28.4167 191.833 26.25 193.75 24.25C195.667 22.1667 197.833 20.4167 200.25 19C202.667 17.5833 205.208 16.4583 207.875 15.625C210.542 14.7917 213.125 14.375 215.625 14.375C219.208 14.375 221.667 15.3333 223 17.25C224.333 19.1667 225 22.0417 225 25.875C225 26.625 224.708 27.5833 224.125 28.75C223.625 29.9167 222.958 31.0417 222.125 32.125C221.292 33.2083 220.375 34.125 219.375 34.875C218.375 35.625 217.417 36 216.5 36C216.5 34.9167 216.708 33.9167 217.125 33C217.542 32 217.958 31.0417 218.375 30.125C218.875 29.2083 219.333 28.2917 219.75 27.375C220.167 26.375 220.375 25.2917 220.375 24.125C220.375 22.7917 220.25 21.6667 220 20.75C219.75 19.8333 218.708 19.375 216.875 19.375C214.458 19.375 212 20 209.5 21.25C207.083 22.4167 204.708 24.0417 202.375 26.125C200.125 28.125 197.958 30.4583 195.875 33.125C193.875 35.7083 192.125 38.375 190.625 41.125C189.208 43.875 188.042 46.625 187.125 49.375C186.292 52.0417 185.875 54.4583 185.875 56.625C185.875 56.7917 185.875 57.0833 185.875 57.5C185.958 57.8333 186 58.0833 186 58.25C187.583 57.75 189.375 57.1667 191.375 56.5C193.458 55.8333 195.583 55.25 197.75 54.75C200 54.1667 202.208 53.7083 204.375 53.375C206.625 52.9583 208.75 52.75 210.75 52.75C210.75 54.0833 210.083 55.2917 208.75 56.375C207.417 57.4583 205.708 58.4583 203.625 59.375C201.625 60.2917 199.375 61.1667 196.875 62C194.458 62.8333 192.167 63.6667 190 64.5C187.833 65.25 185.917 66.0833 184.25 67C182.667 67.8333 181.667 68.7083 181.25 69.625C180.833 72.125 179.917 75.5833 178.5 80C177.167 84.4167 175.417 89.2083 173.25 94.375C171.083 99.5417 168.583 104.792 165.75 110.125C163 115.458 160 120.292 156.75 124.625C153.417 128.958 149.958 132.5 146.375 135.25C142.708 138 138.958 139.375 135.125 139.375C134.625 139.375 134 139.333 133.25 139.25C132.417 139.167 131.667 139 131 138.75C130.25 138.5 129.625 138.125 129.125 137.625C128.625 137.125 128.375 136.5 128.375 135.75ZM215.625 83.875C215.625 81.4583 216.083 79.0417 217 76.625C217.917 74.2083 219 71.8333 220.25 69.5C221.5 67.0833 222.75 64.7083 224 62.375C225.333 60.0417 226.333 57.75 227 55.5C225.417 56.4167 224.042 56.9583 222.875 57.125C221.792 57.2083 220.458 57.25 218.875 57.25C218.708 57.25 218.167 57.25 217.25 57.25C216.417 57.1667 215.875 57.125 215.625 57.125C216.125 55.2917 217.042 53.6667 218.375 52.25C219.708 50.75 221.208 49.5 222.875 48.5C224.625 47.4167 226.417 46.5417 228.25 45.875C230.167 45.125 231.875 44.5417 233.375 44.125C235.875 40.2083 237.917 36.2917 239.5 32.375C241.083 28.375 242.667 24.5 244.25 20.75C245.917 16.9167 247.833 13.2917 250 9.875C252.25 6.375 255.25 3.16667 259 0.25L259.625 5L244 41.625C244.917 41.375 246.042 41.125 247.375 40.875C248.708 40.625 250.042 40.375 251.375 40.125C252.792 39.875 254.125 39.6667 255.375 39.5C256.708 39.25 257.833 39 258.75 38.75C258.833 38.75 259.083 38.75 259.5 38.75C259.917 38.6667 260.25 38.625 260.5 38.625C261.667 38.625 262.625 38.8333 263.375 39.25C264.125 39.6667 264.75 40.5833 265.25 42C259.583 43.6667 254.458 45.4167 249.875 47.25C245.292 49.0833 241.292 51.5 237.875 54.5C234.542 57.4167 231.792 61.1667 229.625 65.75C227.542 70.25 226.083 76.0417 225.25 83.125C225.25 84.625 225.333 86 225.5 87.25C225.667 88.5 226.708 89.25 228.625 89.5C230.542 89.5 232.333 89.125 234 88.375C235.667 87.625 237.292 86.8333 238.875 86C240.458 85.0833 242.042 84.25 243.625 83.5C245.292 82.75 247.083 82.375 249 82.375C249 84.375 248.125 86.2083 246.375 87.875C244.625 89.5417 242.5 91 240 92.25C237.583 93.5 235.083 94.4583 232.5 95.125C229.917 95.7917 227.792 96.125 226.125 96.125C224.458 96.125 222.958 95.7917 221.625 95.125C220.292 94.4583 219.167 93.5833 218.25 92.5C217.417 91.3333 216.75 90 216.25 88.5C215.833 87 215.625 85.4583 215.625 83.875ZM248.5 87.875C248.5 86.7083 248.625 85.7083 248.875 84.875C249.125 83.9583 249.583 82.7917 250.25 81.375C250.833 80.5417 251.875 78.9583 253.375 76.625C254.958 74.2917 256.583 71.8333 258.25 69.25C260 66.6667 261.625 64.25 263.125 62C264.708 59.6667 265.792 58.0417 266.375 57.125C267.125 56.0417 267.708 55.4583 268.125 55.375C268.542 55.2917 269.333 55.25 270.5 55.25C271.25 55.25 272.042 55.2917 272.875 55.375C273.792 55.4583 274.375 56.0417 274.625 57.125C273.458 59.9583 271.875 62.6667 269.875 65.25C267.958 67.75 266.042 70.25 264.125 72.75C262.292 75.25 260.667 77.8333 259.25 80.5C257.833 83.0833 257.125 85.875 257.125 88.875C257.458 88.875 257.958 88.9167 258.625 89C259.375 89.0833 260.167 89.1667 261 89.25C261.833 89.3333 262.583 89.4167 263.25 89.5C264 89.5833 264.542 89.5833 264.875 89.5C265.375 89.4167 266.208 89.25 267.375 89C268.625 88.6667 269.917 88.3333 271.25 88C272.667 87.6667 274 87.3333 275.25 87C276.5 86.6667 277.375 86.4167 277.875 86.25C277.875 86.4167 277.875 86.7083 277.875 87.125C277.958 87.4583 278 87.7083 278 87.875C278 89.5417 277.208 90.9167 275.625 92C274.125 93.0833 272.333 93.9583 270.25 94.625C268.25 95.2083 266.167 95.625 264 95.875C261.917 96.0417 260.292 96.125 259.125 96.125C257.875 96.125 256.583 96 255.25 95.75C254 95.4167 252.875 94.9167 251.875 94.25C250.875 93.5833 250.042 92.75 249.375 91.75C248.792 90.6667 248.5 89.375 248.5 87.875ZM284.875 14.625C285.958 14.625 286.958 14.6667 287.875 14.75C288.792 14.8333 289.583 15.0417 290.25 15.375C290.917 15.7083 291.458 16.2083 291.875 16.875C292.292 17.5417 292.5 18.4583 292.5 19.625C292.5 20.125 292.5 20.6667 292.5 21.25C292.5 21.8333 292.417 22.4167 292.25 23C292.167 23.5 291.958 23.9583 291.625 24.375C291.292 24.7083 290.75 24.875 290 24.875C288.833 24.875 287.875 24.4583 287.125 23.625C286.458 22.7917 285.958 21.8333 285.625 20.75C285.292 19.5833 285.083 18.4167 285 17.25C284.917 16.0833 284.875 15.2083 284.875 14.625ZM280.625 90.375C280.625 89.625 280.625 89.0417 280.625 88.625C280.625 88.2083 280.667 87.8333 280.75 87.5C280.917 87.0833 281.125 86.6667 281.375 86.25C281.625 85.8333 281.958 85.2917 282.375 84.625C283.042 83.4583 284.292 81.4167 286.125 78.5C287.958 75.5833 289.917 72.5 292 69.25C294.083 66 296.042 62.9167 297.875 60C299.792 57.0833 301.125 55.0417 301.875 53.875C301.958 53.7917 302.167 53.75 302.5 53.75C302.917 53.75 303.208 53.75 303.375 53.75C303.542 53.75 303.833 53.75 304.25 53.75C304.667 53.75 304.917 53.7917 305 53.875C305.083 53.9583 305.25 54.1667 305.5 54.5C305.833 54.8333 306.167 55.2083 306.5 55.625C306.917 55.9583 307.25 56.2917 307.5 56.625C307.833 56.9583 308.083 57.125 308.25 57.125C309 57.125 309.792 56.875 310.625 56.375C311.458 55.875 312.292 55.3333 313.125 54.75C314.042 54.0833 314.958 53.5 315.875 53C316.792 52.5 317.75 52.25 318.75 52.25C319.833 52.25 320.833 52.5 321.75 53C322.667 53.5 323.458 54.125 324.125 54.875C324.792 55.625 325.292 56.4583 325.625 57.375C326.042 58.2917 326.25 59.2083 326.25 60.125C326.25 62.0417 325.958 63.875 325.375 65.625C324.875 67.375 324.292 69.125 323.625 70.875C322.958 72.5417 322.333 74.25 321.75 76C321.25 77.6667 321 79.4167 321 81.25C321 83.0833 321.208 84.4167 321.625 85.25C322.042 86 323.208 86.375 325.125 86.375C327.375 86.375 329.5 86.0417 331.5 85.375C333.583 84.7083 335.708 84.375 337.875 84.375C337.875 86.375 337.25 88.0417 336 89.375C334.833 90.7083 333.333 91.7917 331.5 92.625C329.75 93.375 327.833 93.9167 325.75 94.25C323.75 94.5 321.917 94.625 320.25 94.625C317.083 94.625 314.75 93.75 313.25 92C311.833 90.1667 311.125 87.75 311.125 84.75C311.125 82.75 311.458 80.875 312.125 79.125C312.875 77.375 313.667 75.6667 314.5 74C315.417 72.3333 316.25 70.6667 317 69C317.75 67.3333 318.125 65.5417 318.125 63.625C318.125 63.125 318.042 62.4583 317.875 61.625C317.708 60.7917 317.167 60.375 316.25 60.375C313.5 60.375 311 61.25 308.75 63C306.583 64.75 304.583 66.9583 302.75 69.625C301 72.2917 299.375 75.1667 297.875 78.25C296.458 81.3333 295.083 84.2083 293.75 86.875C292.5 89.5417 291.292 91.75 290.125 93.5C288.958 95.25 287.75 96.125 286.5 96.125C284.75 96.125 283.333 95.5833 282.25 94.5C281.167 93.4167 280.625 92.0417 280.625 90.375ZM311.125 162.375C311.125 157.625 311.958 153.375 313.625 149.625C315.208 145.875 317.333 142.375 320 139.125C322.667 135.958 325.708 133 329.125 130.25C332.542 127.583 336.042 124.958 339.625 122.375C343.208 119.875 346.708 117.333 350.125 114.75C353.542 112.167 356.583 109.417 359.25 106.5C361.917 103.583 364.042 100.417 365.625 97C367.292 93.5833 368.125 89.7917 368.125 85.625C368.125 85.4583 368.125 85.0833 368.125 84.5C368.125 83.8333 368.083 83.4167 368 83.25C367.417 83.75 366.292 84.5 364.625 85.5C362.958 86.4167 361.167 87.4167 359.25 88.5C357.417 89.5 355.625 90.4167 353.875 91.25C352.125 92.0833 350.875 92.625 350.125 92.875C350.042 92.875 349.708 92.9167 349.125 93C348.625 93.0833 348 93.1667 347.25 93.25C346.583 93.3333 345.917 93.4167 345.25 93.5C344.583 93.5 344.042 93.5 343.625 93.5C339.875 92.8333 337.375 91.5417 336.125 89.625C334.875 87.625 334.542 85.2917 335.125 82.625C335.708 79.9583 337 77.125 339 74.125C341.083 71.0417 343.542 68.125 346.375 65.375C349.292 62.5417 352.417 60.0417 355.75 57.875C359.167 55.625 362.458 54.0417 365.625 53.125C368.875 52.125 371.833 51.9167 374.5 52.5C377.25 53 379.375 54.625 380.875 57.375C381.375 60.875 381.375 64.1667 380.875 67.25C380.375 70.25 379.708 73.2083 378.875 76.125C378.042 79.0417 377.208 82 376.375 85C375.542 87.9167 375.042 91.125 374.875 94.625H376C376.5 94.125 377.333 93.25 378.5 92C379.75 90.75 381.042 89.4583 382.375 88.125C383.792 86.7083 385.125 85.4167 386.375 84.25C387.625 83 388.5 82.125 389 81.625C389.25 81.375 389.75 81.0417 390.5 80.625C391.333 80.2083 391.917 80 392.25 80V80.375V80.625C392.25 80.7083 392.292 80.75 392.375 80.75C392.375 83.75 391.5 86.5 389.75 89C388.083 91.5 386.042 93.8333 383.625 96C381.208 98.1667 378.708 100.167 376.125 102C373.542 103.917 371.375 105.75 369.625 107.5C368.208 110.417 366.667 114.042 365 118.375C363.333 122.792 361.5 127.458 359.5 132.375C357.5 137.375 355.25 142.417 352.75 147.5C350.333 152.667 347.583 157.417 344.5 161.75C341.5 166.083 338.167 169.792 334.5 172.875C330.833 176.042 326.75 178.083 322.25 179C320.083 179 318.292 178.458 316.875 177.375C315.375 176.292 314.208 174.917 313.375 173.25C312.542 171.667 311.958 169.875 311.625 167.875C311.292 165.958 311.125 164.125 311.125 162.375ZM317.75 169.125C318.417 170.708 319.208 171.667 320.125 172C321.042 172.333 322.083 172.5 323.25 172.5C325.417 172.5 327.792 171.375 330.375 169.125C332.958 166.875 335.542 163.958 338.125 160.375C340.792 156.875 343.333 152.958 345.75 148.625C348.167 144.292 350.292 140.083 352.125 136C354.042 131.917 355.542 128.167 356.625 124.75C357.792 121.417 358.375 118.917 358.375 117.25C358.375 117.083 358.333 116.792 358.25 116.375C358.25 116.042 358.25 115.792 358.25 115.625C358 115.792 357.417 116.042 356.5 116.375C355.667 116.792 355.167 117.083 355 117.25C351.5 119.833 347.542 122.667 343.125 125.75C338.792 128.917 334.75 132.375 331 136.125C327.167 139.875 323.958 143.917 321.375 148.25C318.792 152.667 317.5 157.417 317.5 162.5C317.5 162.75 317.5 163.208 317.5 163.875C317.5 164.542 317.542 165.208 317.625 165.875C317.625 166.542 317.667 167.167 317.75 167.75C317.75 168.417 317.75 168.875 317.75 169.125ZM372.875 58.875C371.542 58.875 369.792 59.3333 367.625 60.25C365.458 61.0833 363.125 62.25 360.625 63.75C358.208 65.25 355.75 66.9583 353.25 68.875C350.75 70.7917 348.458 72.7917 346.375 74.875C344.375 76.9583 342.75 79.0417 341.5 81.125C340.25 83.2083 339.625 85.125 339.625 86.875C341.375 86.875 343.5 86.5417 346 85.875C348.5 85.125 351.083 84.1667 353.75 83C356.5 81.75 359.208 80.3333 361.875 78.75C364.542 77.0833 366.917 75.3333 369 73.5C371.167 71.6667 372.917 69.7917 374.25 67.875C375.583 65.9583 376.25 64.0833 376.25 62.25C376.25 60 375.125 58.875 372.875 58.875Z" fill="#FFD700"/>
</svg>
