<svg id="crafting" width="407" height="169" viewBox="0 0 407 169" fill="none" xmlns="http://www.w3.org/2000/svg">
<path d="M44.2871 40.102C45.0293 33.4221 59.688 22.5592 51.5445 16.2253C49.3906 14.5501 38.1358 18.5934 36.1446 19.6475C23.4716 26.3567 18.0979 38.8659 11.9926 51.0766C8.10347 58.8549 1.38225 78.0158 5.06957 87.0293C10.012 99.1107 31.8432 91.0174 40.0192 84.8855C42.2156 83.2382 48.5122 76.3372 42.7923 76.566C39.3791 76.7025 39.9363 86.4786 45.1721 86.4786C58.876 86.4786 79.6763 64.4861 83.3079 52.1387C87.1082 39.2177 84.0917 56.5839 85.904 58.1373C91.3201 62.7797 84.6399 71.3046 82.5212 77.7854C77.7441 92.3977 95.3944 105.58 102.504 89.3304C107.773 77.2862 111.52 59.219 128.013 59.219C145.806 59.219 131.112 81.0785 125.2 86.9899C121.496 90.6937 116.466 93.2049 111.275 93.2049C106.885 93.2049 99.0582 89.5532 105.532 92.1429C111.018 94.337 115.82 93.293 121.109 90.6481C123.852 89.2769 128.898 79.0113 128.898 84.0004C128.898 97.9003 146.801 96.0086 156 91.2775C157.224 90.6481 173.212 70.2436 179.169 60.4581C185.888 49.4186 194.751 43.2822 203.793 34.241C209.878 28.1557 218.225 21.693 206.271 21.693C178.451 21.693 172.825 62.9182 164.221 81.719C156.075 99.5196 148.302 133.917 123.941 133.917C117.274 133.917 125.341 133.824 127.836 133.13C132.223 131.912 138.876 129.943 141.977 126.325C149.832 117.161 154.035 108.729 158.306 96.3911C159.35 93.3744 168.324 69.7498 168.687 69.8704C166.4 68.9556 153.153 74.0973 155.095 73.1832C160.609 70.5885 168.592 70.12 174.566 68.8562C180.96 67.5038 187.577 69.758 193.5 67.0245C196.392 65.6897 196 67.0245 200.5 64.0245C205 61.0245 207 56.4585 213 52.5249C224.483 49.0249 222 51.1412 228.5 42.5249C232.789 36.8391 239.306 24.4121 242.5 18.0251C243.742 15.5405 255.87 -1.03536 250 5.52521C243.654 12.6174 231.563 36.2382 231.563 45.7663C231.563 52.7369 276.78 34.5725 246.393 45.0583C238.439 47.803 230 43.0245 224.483 58.3143C220.5 70.823 218.469 76.8807 215.81 88.052C212.84 100.525 226.218 94.6515 231.485 92.4969C238.707 89.5423 248.402 83.9948 251.959 76.8807C254.583 71.6328 259.282 66.8758 261.38 61.4218C261.83 60.2501 254.517 71.9711 252.824 74.9336C248.01 83.3579 240.542 96.3911 255.991 96.3911C263.695 96.3911 268.325 91.6401 274.754 88.4257C285.139 83.2329 291.708 75.582 297.175 65.6897C303.397 54.4318 293.244 68.1931 291.117 72.7898C288 79.5273 276.829 98.7112 281.284 92.7722C287.976 83.8489 294.414 74.899 300.735 65.7684C307.097 56.5783 315.042 60.2492 313.971 70.823C313.261 77.8342 305.256 101.66 321.13 95.4864C337.812 88.9991 336.872 61.269 354.212 55.4893C362.564 52.7052 367.89 62.4767 367.89 69.8704C367.89 84.4592 358.51 90.4221 345.027 93.382C319.555 98.9734 340.055 63.5062 351.576 56.4656C357.558 52.8099 365.182 59.3073 366.956 64.8834C371.646 79.6212 358.88 102.498 351.792 114.387C344.795 126.124 333.618 141.46 322.9 149.848C318.978 152.918 302.578 176.358 305.77 157.204C310.156 130.89 334.917 123.752 354.212 110.395C362.861 104.406 371.566 98.9847 379.898 92.5756C382.616 90.4847 384.605 86.7486 387.332 84.9838C391.799 82.0936 401.595 68.8254 403.263 63.8213" stroke="#FFD700" stroke-width="7" stroke-linecap="round"/>
</svg>
