<svg width="1081" height="243" viewBox="0 0 1081 243" fill="none" xmlns="http://www.w3.org/2000/svg">
<path d="M87.5 154.5L0 6.5H35.5L87.5 99L127 34.5H87.5V6.5H174.5L87.5 154.5Z" fill="#51168B"/>
<path d="M904.5 7.00049L992 155H956.5L904.5 62.5005L865 127H904.5V155L817.5 155L904.5 7.00049Z" fill="#51168B"/>
<path d="M700.5 7L788 155H752.5L700.5 62.5L661 127H700.5V155L613.5 155L700.5 7Z" fill="#51168B"/>
<path d="M334 33.5V6.5H389V153H361V33.5H334Z" fill="#51168B"/>
<path d="M486 126V153H431V6.5H459V126H486Z" fill="#51168B"/>
<path d="M583 126V153H528V6.5H556V126H583Z" fill="#51168B"/>
<path d="M319 81C319 118.418 289.089 148.5 252.5 148.5C215.911 148.5 186 118.418 186 81C186 43.5822 215.911 13.5 252.5 13.5C289.089 13.5 319 43.5822 319 81Z" stroke="#51168B" stroke-width="23"/>
<path d="M1081 0H1016.5C1042.9 27.2 1050 93 1050 93C1050 101.5 1056 25.5 1081 0Z" fill="#51168B"/>
<circle cx="1048.5" cy="132" r="23" fill="#51168B"/>
<path d="M897.871 228.535C897.871 227.621 897.789 226.789 897.625 226.039C897.461 225.289 897.109 224.598 896.57 223.965C896.055 223.332 895.293 222.699 894.285 222.066C893.301 221.434 892.012 220.777 890.418 220.098C888.52 219.301 886.68 218.457 884.898 217.566C883.117 216.652 881.512 215.598 880.082 214.402C878.652 213.207 877.516 211.801 876.672 210.184C875.852 208.543 875.441 206.621 875.441 204.418C875.441 202.262 875.828 200.305 876.602 198.547C877.398 196.789 878.523 195.289 879.977 194.047C881.43 192.781 883.129 191.809 885.074 191.129C887.043 190.449 889.234 190.109 891.648 190.109C894.93 190.109 897.766 190.789 900.156 192.148C902.57 193.508 904.434 195.371 905.746 197.738C907.082 200.105 907.75 202.824 907.75 205.895H897.484C897.484 204.441 897.273 203.164 896.852 202.062C896.453 200.938 895.809 200.059 894.918 199.426C894.027 198.793 892.879 198.477 891.473 198.477C890.16 198.477 889.07 198.746 888.203 199.285C887.359 199.801 886.727 200.516 886.305 201.43C885.906 202.32 885.707 203.328 885.707 204.453C885.707 205.297 885.906 206.059 886.305 206.738C886.727 207.395 887.301 207.992 888.027 208.531C888.754 209.047 889.609 209.551 890.594 210.043C891.602 210.535 892.703 211.016 893.898 211.484C896.219 212.398 898.27 213.406 900.051 214.508C901.832 215.586 903.32 216.805 904.516 218.164C905.711 219.5 906.613 221.012 907.223 222.699C907.832 224.387 908.137 226.309 908.137 228.465C908.137 230.598 907.762 232.543 907.012 234.301C906.285 236.035 905.219 237.535 903.812 238.801C902.406 240.043 900.707 241.004 898.715 241.684C896.746 242.363 894.543 242.703 892.105 242.703C889.738 242.703 887.5 242.375 885.391 241.719C883.281 241.039 881.418 240.02 879.801 238.66C878.207 237.277 876.953 235.531 876.039 233.422C875.125 231.289 874.668 228.77 874.668 225.863H884.969C884.969 227.41 885.121 228.734 885.426 229.836C885.73 230.914 886.199 231.781 886.832 232.438C887.465 233.07 888.238 233.551 889.152 233.879C890.09 234.184 891.156 234.336 892.352 234.336C893.711 234.336 894.789 234.078 895.586 233.562C896.406 233.047 896.992 232.355 897.344 231.488C897.695 230.621 897.871 229.637 897.871 228.535Z" fill="#51168B"/>
<path d="M854.238 190.812V242H844.289L828.223 209.973V242H818.449V190.812H828.258L844.465 223.191V190.812H854.238Z" fill="#51168B"/>
<path d="M797.281 212.434V220.977C797.281 224.586 796.836 227.75 795.945 230.469C795.078 233.164 793.836 235.426 792.219 237.254C790.625 239.059 788.691 240.418 786.418 241.332C784.168 242.246 781.672 242.703 778.93 242.703C776.188 242.703 773.68 242.246 771.406 241.332C769.156 240.418 767.211 239.059 765.57 237.254C763.953 235.426 762.699 233.164 761.809 230.469C760.918 227.75 760.473 224.586 760.473 220.977V212.434C760.473 208.73 760.906 205.496 761.773 202.73C762.641 199.941 763.895 197.621 765.535 195.77C767.176 193.895 769.121 192.488 771.371 191.551C773.621 190.59 776.117 190.109 778.859 190.109C781.602 190.109 784.098 190.59 786.348 191.551C788.598 192.488 790.543 193.895 792.184 195.77C793.824 197.621 795.078 199.941 795.945 202.73C796.836 205.496 797.281 208.73 797.281 212.434ZM787.051 220.977V212.363C787.051 209.926 786.875 207.852 786.523 206.141C786.172 204.406 785.645 202.988 784.941 201.887C784.238 200.785 783.383 199.977 782.375 199.461C781.367 198.945 780.195 198.688 778.859 198.688C777.523 198.688 776.34 198.945 775.309 199.461C774.301 199.977 773.445 200.785 772.742 201.887C772.062 202.988 771.547 204.406 771.195 206.141C770.867 207.852 770.703 209.926 770.703 212.363V220.977C770.703 223.32 770.879 225.324 771.23 226.988C771.582 228.652 772.109 230.012 772.812 231.066C773.516 232.121 774.371 232.906 775.379 233.422C776.41 233.914 777.594 234.16 778.93 234.16C780.242 234.16 781.402 233.914 782.41 233.422C783.441 232.906 784.297 232.121 784.977 231.066C785.656 230.012 786.172 228.652 786.523 226.988C786.875 225.324 787.051 223.32 787.051 220.977Z" fill="#51168B"/>
<path d="M738.847 190.812V242H728.616V190.812H738.847Z" fill="#51168B"/>
<path d="M695.776 190.812V242H685.546V190.812H695.776ZM708.503 190.812V199.355H673.065V190.812H708.503Z" fill="#51168B"/>
<path d="M641.421 199.953L630.417 242H619.554L635.55 190.812H642.335L641.421 199.953ZM650.104 242L639.03 199.953L638.011 190.812H644.901L661.038 242H650.104ZM650.491 222.91V231.453H627.394V222.91H650.491Z" fill="#51168B"/>
<path d="M592.549 224.949H602.779C602.639 228.793 601.865 232.039 600.459 234.688C599.053 237.312 597.049 239.305 594.447 240.664C591.869 242.023 588.752 242.703 585.096 242.703C582.26 242.703 579.74 242.234 577.537 241.297C575.334 240.336 573.459 238.93 571.912 237.078C570.365 235.227 569.193 232.941 568.396 230.223C567.623 227.48 567.236 224.328 567.236 220.766V212.082C567.236 208.52 567.646 205.367 568.467 202.625C569.311 199.883 570.506 197.586 572.053 195.734C573.623 193.859 575.51 192.453 577.713 191.516C579.939 190.555 582.447 190.074 585.236 190.074C588.963 190.074 592.08 190.777 594.588 192.184C597.096 193.59 599.029 195.641 600.389 198.336C601.771 201.008 602.604 204.277 602.885 208.145H592.619C592.549 205.707 592.268 203.797 591.775 202.414C591.307 201.008 590.557 200.023 589.525 199.461C588.494 198.875 587.064 198.582 585.236 198.582C583.877 198.582 582.705 198.828 581.721 199.32C580.736 199.789 579.928 200.551 579.295 201.605C578.662 202.66 578.193 204.043 577.889 205.754C577.607 207.465 577.467 209.551 577.467 212.012V220.766C577.467 223.18 577.596 225.242 577.854 226.953C578.111 228.641 578.521 230.023 579.084 231.102C579.646 232.18 580.408 232.965 581.369 233.457C582.354 233.949 583.596 234.195 585.096 234.195C586.83 234.195 588.225 233.938 589.279 233.422C590.357 232.906 591.154 231.98 591.67 230.645C592.186 229.309 592.479 227.41 592.549 224.949Z" fill="#51168B"/>
<path d="M545.682 190.812V242H535.451V190.812H545.682Z" fill="#51168B"/>
<path d="M513.018 190.812V242H503.068L487.002 209.973V242H477.229V190.812H487.037L503.244 223.191V190.812H513.018Z" fill="#51168B"/>
<path d="M445.407 190.812H455.673V225.969C455.673 229.906 454.946 233.117 453.493 235.602C452.063 238.062 450.083 239.867 447.552 241.016C445.021 242.141 442.126 242.703 438.868 242.703C435.587 242.703 432.669 242.141 430.114 241.016C427.56 239.867 425.567 238.062 424.138 235.602C422.731 233.117 422.028 229.906 422.028 225.969V190.812H432.294V225.969C432.294 228.195 432.54 229.906 433.032 231.102C433.548 232.297 434.286 233.117 435.247 233.562C436.231 233.984 437.438 234.195 438.868 234.195C440.321 234.195 441.517 233.984 442.454 233.562C443.415 233.117 444.142 232.297 444.634 231.102C445.149 229.906 445.407 228.195 445.407 225.969V190.812Z" fill="#51168B"/>
<path d="M357.759 190.812H366.794L377.235 225.828L387.642 190.812H395.622L381.067 242H373.368L357.759 190.812ZM354.103 190.812H362.716L364.052 224.562V242H354.103V190.812ZM391.685 190.812H400.333V242H390.419V224.562L391.685 190.812Z" fill="#51168B"/>
<path d="M289.446 190.812H298.481L308.923 225.828L319.329 190.812H327.31L312.755 242H305.056L289.446 190.812ZM285.79 190.812H294.403L295.739 224.562V242H285.79V190.812ZM323.372 190.812H332.021V242H322.106V224.562L323.372 190.812Z" fill="#51168B"/>
<path d="M264.621 212.434V220.977C264.621 224.586 264.176 227.75 263.285 230.469C262.418 233.164 261.176 235.426 259.559 237.254C257.965 239.059 256.031 240.418 253.758 241.332C251.508 242.246 249.012 242.703 246.27 242.703C243.527 242.703 241.02 242.246 238.746 241.332C236.496 240.418 234.551 239.059 232.91 237.254C231.293 235.426 230.039 233.164 229.148 230.469C228.258 227.75 227.812 224.586 227.812 220.977V212.434C227.812 208.73 228.246 205.496 229.113 202.73C229.98 199.941 231.234 197.621 232.875 195.77C234.516 193.895 236.461 192.488 238.711 191.551C240.961 190.59 243.457 190.109 246.199 190.109C248.941 190.109 251.438 190.59 253.688 191.551C255.938 192.488 257.883 193.895 259.523 195.77C261.164 197.621 262.418 199.941 263.285 202.73C264.176 205.496 264.621 208.73 264.621 212.434ZM254.391 220.977V212.363C254.391 209.926 254.215 207.852 253.863 206.141C253.512 204.406 252.984 202.988 252.281 201.887C251.578 200.785 250.723 199.977 249.715 199.461C248.707 198.945 247.535 198.688 246.199 198.688C244.863 198.688 243.68 198.945 242.648 199.461C241.641 199.977 240.785 200.785 240.082 201.887C239.402 202.988 238.887 204.406 238.535 206.141C238.207 207.852 238.043 209.926 238.043 212.363V220.977C238.043 223.32 238.219 225.324 238.57 226.988C238.922 228.652 239.449 230.012 240.152 231.066C240.855 232.121 241.711 232.906 242.719 233.422C243.75 233.914 244.934 234.16 246.27 234.16C247.582 234.16 248.742 233.914 249.75 233.422C250.781 232.906 251.637 232.121 252.316 231.066C252.996 230.012 253.512 228.652 253.863 226.988C254.215 225.324 254.391 223.32 254.391 220.977Z" fill="#51168B"/>
<path d="M198.312 224.949H208.543C208.402 228.793 207.629 232.039 206.223 234.688C204.816 237.312 202.812 239.305 200.211 240.664C197.633 242.023 194.516 242.703 190.859 242.703C188.023 242.703 185.504 242.234 183.301 241.297C181.098 240.336 179.223 238.93 177.676 237.078C176.129 235.227 174.957 232.941 174.16 230.223C173.387 227.48 173 224.328 173 220.766V212.082C173 208.52 173.41 205.367 174.23 202.625C175.074 199.883 176.27 197.586 177.816 195.734C179.387 193.859 181.273 192.453 183.477 191.516C185.703 190.555 188.211 190.074 191 190.074C194.727 190.074 197.844 190.777 200.352 192.184C202.859 193.59 204.793 195.641 206.152 198.336C207.535 201.008 208.367 204.277 208.648 208.145H198.383C198.312 205.707 198.031 203.797 197.539 202.414C197.07 201.008 196.32 200.023 195.289 199.461C194.258 198.875 192.828 198.582 191 198.582C189.641 198.582 188.469 198.828 187.484 199.32C186.5 199.789 185.691 200.551 185.059 201.605C184.426 202.66 183.957 204.043 183.652 205.754C183.371 207.465 183.23 209.551 183.23 212.012V220.766C183.23 223.18 183.359 225.242 183.617 226.953C183.875 228.641 184.285 230.023 184.848 231.102C185.41 232.18 186.172 232.965 187.133 233.457C188.117 233.949 189.359 234.195 190.859 234.195C192.594 234.195 193.988 233.938 195.043 233.422C196.121 232.906 196.918 231.98 197.434 230.645C197.949 229.309 198.242 227.41 198.312 224.949Z" fill="#51168B"/>
</svg>
