<svg id="imSvg" width="496" height="100" viewBox="0 0 496 100" fill="none" xmlns="http://www.w3.org/2000/svg">
<path d="M33.5 29.4834C33.0423 33.1454 10.6661 69.8836 8.22818 72.7518C5.32864 76.163 4 82.8782 4 87.1276C4 102.068 24.7731 92.1286 28.9463 84.8256C31.5186 80.3241 42 65.5 49 58.376C56 51.2519 64.8209 47.1464 61.0569 64.084C60.0647 68.5492 55.7496 77.0953 53.2818 80.9732C48.602 88.3271 68.1633 63.0826 75.5 58.376C77.6655 56.9868 86.5 52.8143 86.5 58.376C86.5 64.6153 85 67.6545 82.2448 74.8659C80.5 79.4327 78.3708 84.8939 83.4898 88.1846C88.223 91.2274 93.5 90 99.134 87.9732C112.5 80.9732 127.234 73.0563 132.537 61.1243C133.209 59.6123 136.673 56.8953 138.198 56.2854C143.22 54.2763 129.863 63.3269 126.617 67.6545C120.464 75.8586 106.745 103.46 110.785 94.0336C112.532 89.9567 137.562 41.4608 145.55 55.8391C147.71 59.7271 146.631 66.02 144.798 69.7921C142.898 73.7039 141.19 77.8446 139.819 81.9598C138.25 86.6648 144.01 74.4919 144.986 72.7988C150.978 62.4135 155.5 55.8391 164.412 52.2216C169.211 50.2741 173.127 53.8669 173.127 58.376C173.127 67.2501 169.109 74.3129 166.033 82.4766C162.713 91.2886 166.969 91.9135 177.5 90.6746C193.567 88.7843 200.337 73.5537 205.026 55.8391C210.938 33.5056 193.538 82.6003 205.026 85.8826C219.001 89.8752 228.168 76.1872 238.57 68.8055C244.981 64.2555 256.364 53.0846 256.845 44.423C257.105 39.7365 249.408 41.3519 247.872 44.423C241.457 57.2527 275.722 53.6012 266.781 71.4833C261.573 81.8991 253.243 82.861 243.291 87.339C234.646 91.2294 233.349 83.1152 241.953 86.188C260.651 92.8661 271.633 93.8802 285.01 81.2081C292.446 74.1635 306.315 59.4647 306.315 48.8626C306.315 44.8865 296.323 39.9015 294.57 45.5975C290.74 58.0458 303.262 53.6321 308.946 59.3156C315.776 66.1454 322.04 77.9426 315.257 82.8759C315.257 89.2417 298.281 87.643 298.281 85.2014C298.281 81.1901 318.001 89.3217 320 89.2417C339.652 88.4556 336.778 61.3495 351.134 54.5706C354.641 52.9145 368.937 51.6109 359.12 51.6109C343.988 51.6109 333.348 66.5523 339.13 80.7853C344.021 92.825 364.241 94.3451 364.241 79.0001C364.241 69.3619 374.041 42.6554 368.258 50.3659C364.334 55.597 363.395 62.5645 363.395 68.9229C363.395 77.5226 366.711 96.2369 380.308 90.6746C392.141 85.8339 384.418 70.9689 387.59 62.0874C392.647 47.9269 404.409 30.8745 404.409 15.2485C404.409 12.9498 404.379 -0.771156 403.14 5.73514C401.236 15.7339 369.78 87.931 394.684 89.2417C405.551 89.8136 406.495 51.1881 394.05 51.1881C386.474 51.1881 397.169 57.1075 400.721 57.1075C417.811 57.1075 423.949 42.9542 431.798 29.4834C433.478 26.6002 439.342 8.36843 438.751 9.00023C422.334 26.5495 419.63 63.7737 419.63 86.7987C419.63 93.8607 431.699 94.1327 436.449 92.5303C449.658 88.0743 466.986 68.4849 466.986 54.1478C466.986 46.3527 461.93 46.3332 458.153 52.8559C454.109 59.8411 454.262 72.3027 457.872 79.282C465.869 94.7435 486.72 85.8495 491.086 72.7518" stroke="#FFD700" stroke-width="8" stroke-linecap="round"/>
</svg>
