<svg class="nav-logo2" width="1081" height="160" viewBox="0 0 1081 160" fill="none" xmlns="http://www.w3.org/2000/svg">
<path d="M87.5 154.5L0 6.5H35.5L87.5 99L127 34.5H87.5V6.5H174.5L87.5 154.5Z" fill="#51168B"/>
<path d="M904.5 7.00049L992 155H956.5L904.5 62.5005L865 127H904.5V155L817.5 155L904.5 7.00049Z" fill="#51168B"/>
<path d="M700.5 7L788 155H752.5L700.5 62.5L661 127H700.5V155L613.5 155L700.5 7Z" fill="#51168B"/>
<path d="M334 33.5V6.5H389V153H361V33.5H334Z" fill="#51168B"/>
<path d="M486 126V153H431V6.5H459V126H486Z" fill="#51168B"/>
<path d="M583 126V153H528V6.5H556V126H583Z" fill="#51168B"/>
<path d="M319 81C319 118.418 289.089 148.5 252.5 148.5C215.911 148.5 186 118.418 186 81C186 43.5822 215.911 13.5 252.5 13.5C289.089 13.5 319 43.5822 319 81Z" stroke="#fff" stroke-width="23"/>
<path d="M1081 0H1016.5C1042.9 27.2 1050 93 1050 93C1050 101.5 1056 25.5 1081 0Z" fill="#51168B"/>
<circle cx="1048.5" cy="132" r="23" fill="#51168B"/>
</svg>
