<svg width="1082" height="160" viewBox="0 0 1082 160" fill="none" xmlns="http://www.w3.org/2000/svg">
<path d="M88 154.5L0.5 6.5H36L88 99L127.5 34.5H88V6.5H175L88 154.5Z" fill="#51168B"/>
<path d="M905 7.00049L992.5 155H957L905 62.5005L865.5 127H905V155L818 155L905 7.00049Z" fill="#51168B"/>
<path d="M701 7L788.5 155H753L701 62.5L661.5 127H701V155L614 155L701 7Z" fill="#51168B"/>
<path d="M334.5 33.5V6.5H389.5V153H361.5V33.5H334.5Z" fill="#51168B"/>
<path d="M486.5 126V153H431.5V6.5H459.5V126H486.5Z" fill="#51168B"/>
<path d="M583.5 126V153H528.5V6.5H556.5V126H583.5Z" fill="#51168B"/>
<path d="M319.5 81C319.5 118.418 289.589 148.5 253 148.5C216.411 148.5 186.5 118.418 186.5 81C186.5 43.5822 216.411 13.5 253 13.5C289.589 13.5 319.5 43.5822 319.5 81Z" stroke="#51168B" stroke-width="23"/>
<path d="M1081.5 0H1017C1043.4 27.2 1050.5 93 1050.5 93C1050.5 101.5 1056.5 25.5 1081.5 0Z" fill="#51168B"/>
<circle cx="1049" cy="132" r="23" fill="#51168B"/>
</svg>
